# xmcd
#
# Track frame offsets:
#	150
#	17341
#	32742
#	43672
#	58529
#	73759
#	84840
#	92967
#	106369
#	115777
#	128836
#	140467
#	152686
#	159550
#	174940
#	183599
#	206572
#	220397
#	235392
#	259902
#	270755
#	280923
#	298085
#
# Disc length: 4143 seconds
#
# Revision: 0
# Processed by: cddbd v1.5.2PL0 Copyright (c) Steve Scherf et al.
# Submitted via: FairStars CD Ripper 1.01
#
DISCID=48102d17
DTITLE=MC GILLES - LES GRANDS CLASSIQUES CD2
DYEAR=2010
DGENRE=Country
TTITLE0=Fidèle Lachance - Fidélité
TTITLE1=Réal V. Benoit - Poigné Fichu Coincé Foutu
TTITLE2=Viateur Caron - La Fille Japonaise
TTITLE3=Danièle et Michèle - Mon cheval est mort
TTITLE4=Aldei Duguay - Un Verre Sur La Table
TTITLE5=Les soeurs Hachey - Quand Le soleil dit bonjour aux montagnes
TTITLE6=O'KEEFE RAMBLERS - Medley Rock
TTITLE7=Léo Benoit - Bonheur Tyrolien
TTITLE8=Oscar Thiffault - Un chien comme ça
TTITLE9=Lucien Boyer - En r'venant de voir mon ragoût
TTITLE10=Taffnut - Hitler est mort
TTITLE11=Oswald - La soupe à mon ami
TTITLE12=Jacques et Aimé - La soupe à mon ami
TTITLE13=La Poune - Avec un peu d'sauce
TTITLE14=Les messagèges de joie - Petite fille en robe rouge
TTITLE15=Jeanne-Mance Cormier - La chanson de l'andicapée
TTITLE16=Céline et Guylaine - En avion
TTITLE17=Big band Jack - Gros jambon ''Disco''
TTITLE18=Guy Lafleur - Marquer un but
TTITLE19=Jean Boucher - Ma truie
TTITLE20=Nono Deslauriers - Pipi caca dans le p'tit pot
TTITLE21=Normand L'amour - Gabriella
TTITLE22=Catoin - Ça fait wiwe les oiseaux
EXTD=
EXTT0=
EXTT1=
EXTT2=
EXTT3=
EXTT4=
EXTT5=
EXTT6=
EXTT7=
EXTT8=
EXTT9=
EXTT10=
EXTT11=
EXTT12=
EXTT13=
EXTT14=
EXTT15=
EXTT16=
EXTT17=
EXTT18=
EXTT19=
EXTT20=
EXTT21=
EXTT22=
PLAYORDER=
